PathFileType	4	(X/Y/Z)	/Users/itak/Documents/Research/Walk-IL/dataset/trc/00135_00007.trc
DataRate	CameraRate	NumFrames	NumMarkers	Units	OrigDataRate	OrigDataStartFrame	OrigNumFrames
100.000000	100.000000	4	53	mm	100.000000	375	751
Frame#	Time	RPSI			LPSI			L3			STRN			T10			C7			CLAV			RBAK			LBAK			LSHO			LUPA			LAEL			LAOL			LWTS			LWPS			LFRA			LIFD			LHPS			LHTS			RSHO			RUPA			RAEL			RAOL			RWTS			RWPS			RFRA			RIFD			RHTS			RHPS			RBHD			LFHD			RFHD			LBHD			LHIP			RHIP			RASI			LASI			LKNE			LTHI			LANK			LTIP			LTOE			LMT1			LMT5			LHEE			RKNE			RTHI			RANK			RTIP			RTOE			RMT1			RMT5			RHEE			
		X1	Y1	Z1	X2	Y2	Z2	X3	Y3	Z3	X4	Y4	Z4	X5	Y5	Z5	X6	Y6	Z6	X7	Y7	Z7	X8	Y8	Z8	X9	Y9	Z9	X10	Y10	Z10	X11	Y11	Z11	X12	Y12	Z12	X13	Y13	Z13	X14	Y14	Z14	X15	Y15	Z15	X16	Y16	Z16	X17	Y17	Z17	X18	Y18	Z18	X19	Y19	Z19	X20	Y20	Z20	X21	Y21	Z21	X22	Y22	Z22	X23	Y23	Z23	X24	Y24	Z24	X25	Y25	Z25	X26	Y26	Z26	X27	Y27	Z27	X28	Y28	Z28	X29	Y29	Z29	X30	Y30	Z30	X31	Y31	Z31	X32	Y32	Z32	X33	Y33	Z33	X34	Y34	Z34	X35	Y35	Z35	X36	Y36	Z36	X37	Y37	Z37	X38	Y38	Z38	X39	Y39	Z39	X40	Y40	Z40	X41	Y41	Z41	X42	Y42	Z42	X43	Y43	Z43	X44	Y44	Z44	X45	Y45	Z45	X46	Y46	Z46	X47	Y47	Z47	X48	Y48	Z48	X49	Y49	Z49	X50	Y50	Z50	X51	Y51	Z51	X52	Y52	Z52	X53	Y53	Z53	

376	3.75	-223.7321166992188	1095.034423828125	-381.9716186523438	-237.2869720458984	1111.897827148438	-515.1073608398438	-237.6536560058594	1141.577880859375	-450.8251342773438	-8.746994018554688	1330.565551757812	-470.2207946777344	-263.5102233886719	1297.528930664062	-446.822265625	-209.1019439697266	1586.102661132812	-459.4428405761719	-34.99596786499023	1467.677368164062	-465.7142028808594	-268.4131774902344	1401.62548828125	-375.4684753417969	-224.2723388671875	1570.986694335938	-561.013427734375	-142.65478515625	1557.968627929688	-631.8050537109375	-161.1122436523438	1439.440551757812	-717.9944458007812	-118.5622253417969	1236.285034179688	-788.7390747070312	-176.00439453125	1200.826049804688	-734.9317016601562	32.83925628662109	1003.875549316406	-808.0066528320312	-44.36364364624023	966.3363647460938	-836.7489624023438	-81.43255615234375	1129.751708984375	-819.4080200195312	83.16692352294922	817.2236938476562	-826.636962890625	-0.9828014373779297	901.2163696289062	-855.5728759765625	65.01002502441406	924.6000366210938	-840.170166015625	-144.7616271972656	1554.5087890625	-282.3394165039062	-165.5270690917969	1480.846801757812	-220.7938690185547	-210.3160858154297	1190.783813476562	-210.5242309570312	-214.485107421875	1193.39599609375	-306.9580688476562	-103.5405654907227	930.8863525390625	-226.5382080078125	-180.0613250732422	924.1953735351562	-198.3374633789062	-197.5041351318359	1115.39794921875	-196.7846374511719	-106.7159042358398	736.4710693359375	-252.7677307128906	-90.07267761230469	819.2112426757812	-223.4579315185547	-157.6045837402344	819.9745483398438	-196.4465942382812	-144.3737030029297	1748.609497070312	-368.0646362304688	32.80548858642578	1806.090454101562	-490.0487365722656	26.91053009033203	1788.777221679688	-360.1816711425781	-148.3313140869141	1770.458129882812	-503.7206726074219	-170.9726257324219	1029.119384765625	-642.4203491210938	-79.83930206298828	992.1336669921875	-292.2203063964844	-9.812448501586914	1067.927368164062	-352.9028930664062	-50.59922409057617	1083.59912109375	-615.8694458007812	-199.8521728515625	526.0256958007812	-629.945068359375	-207.63623046875	675.8972778320312	-646.6087646484375	-386.8598022460938	40.81403350830078	-593.3197021484375	-340.0348815917969	294.7027587890625	-630.0496215820312	-147.6526794433594	33.47262954711914	-590.7357177734375	-220.7248382568359	40.93350982666016	-539.3388061523438	-273.4010620117188	32.55179595947266	-648.2835693359375	-441.330322265625	48.76316070556641	-518.951416015625	103.1422729492188	550.833251953125	-395.8687133789062	1.476486086845398	802.7526245117188	-317.6700439453125	84.63459014892578	36.8087272644043	-494.5911560058594	99.83708953857422	411.7646484375	-406.6677856445312	303.7944030761719	97.96975708007812	-502.9274597167969	261.4668579101562	72.07765197753906	-554.818359375	206.4718475341797	61.03741073608398	-449.8375854492188	36.54286193847656	36.19125366210938	-550.4055786132812	
377	3.76	-215.2634124755859	1093.611694335938	-384.0452880859375	-228.5718536376953	1110.585205078125	-517.169677734375	-228.9437866210938	1140.078491210938	-452.8661804199219	-0.2610666155815125	1328.986938476562	-471.1105651855469	-255.0960693359375	1296.009887695312	-448.8653564453125	-200.6357574462891	1584.6201171875	-461.1120910644531	-26.56764602661133	1466.073486328125	-466.5394592285156	-260.3724060058594	1400.0419921875	-377.6262817382812	-215.2662811279297	1569.523193359375	-562.7666015625	-133.3366394042969	1556.50732421875	-633.1323852539062	-151.2007751464844	1437.891845703125	-719.3659057617188	-107.3968811035156	1234.829223632812	-789.7276000976562	-164.7133636474609	1198.973388671875	-736.1290283203125	46.76605606079102	1004.223999023438	-807.8973388671875	-29.87189865112305	965.58935546875	-836.8123168945312	-69.06851196289062	1128.580810546875	-820.0481567382812	100.2030944824219	818.9445190429688	-826.1260986328125	14.48593330383301	901.0735473632812	-855.321533203125	80.09348297119141	925.36376953125	-839.7481079101562	-137.2531890869141	1552.833374023438	-283.6575622558594	-158.3990325927734	1479.081665039062	-222.3159484863281	-203.9572601318359	1189.09228515625	-213.145263671875	-207.3722534179688	1191.938598632812	-309.6327819824219	-97.80287170410156	928.9359741210938	-229.0447845458984	-174.498779296875	922.4104614257812	-201.3138122558594	-191.4161071777344	1113.667358398438	-199.4950256347656	-101.4591064453125	734.5946044921875	-255.8884735107422	-84.70256805419922	817.1823120117188	-226.2428131103516	-152.4306793212891	818.1199951171875	-199.6034240722656	-136.54736328125	1747.296020507812	-369.5708923339844	41.83857345581055	1804.294555664062	-489.8213195800781	34.64335250854492	1787.036376953125	-359.9529113769531	-139.1738433837891	1769.029418945312	-505.2129821777344	-161.8772888183594	1027.786254882812	-644.2640991210938	-71.94951629638672	990.3096313476562	-294.0427551269531	-1.530605554580688	1066.182373046875	-354.1674194335938	-41.59006118774414	1082.174560546875	-617.2709350585938	-194.8902282714844	525.1442260742188	-630.8806762695312	-201.1750793457031	675.0720825195312	-647.7974853515625	-386.6750183105469	41.66141128540039	-593.2298583984375	-337.4289245605469	295.1638793945312	-630.5318603515625	-147.5560302734375	33.27730178833008	-590.80029296875	-220.6113891601562	40.95568466186523	-539.3876953125	-273.3563232421875	32.57682800292969	-648.1893310546875	-441.1178588867188	50.24136352539062	-518.8429565429688	106.4535064697266	547.238037109375	-395.3378601074219	6.921769618988037	799.5973510742188	-318.1182250976562	112.9193954467773	34.76207733154297	-498.8018188476562	108.2367706298828	408.9949951171875	-407.0045166015625	329.3782043457031	105.198600769043	-500.72998046875	289.6483459472656	77.84837341308594	-553.6760864257812	232.3812713623047	63.48452377319336	-450.650634765625	66.40241241455078	32.46839141845703	-555.970458984375	
378	3.77	-206.5364379882812	1092.154174804688	-385.9394836425781	-219.6951904296875	1109.26611328125	-519.038330078125	-220.0191192626953	1138.536499023438	-454.715087890625	8.37177848815918	1327.404663085938	-471.8755798339844	-246.5066986083984	1294.4453125	-450.705078125	-192.0771179199219	1583.10107421875	-462.6248779296875	-18.02665901184082	1464.457641601562	-467.2247619628906	-252.2087860107422	1398.392333984375	-379.6260375976562	-206.1721954345703	1568.013427734375	-564.3654174804688	-123.9165344238281	1555.014892578125	-634.3153686523438	-141.2406463623047	1436.2763671875	-720.5618286132812	-96.33905029296875	1233.249877929688	-790.45361328125	-153.5432739257812	1197.056030273438	-737.0360107421875	60.43954849243164	1004.412353515625	-807.3991088867188	-15.6561107635498	964.691162109375	-836.447998046875	-56.88670349121094	1127.257202148438	-820.3587646484375	116.9275741577148	820.5361938476562	-825.1131591796875	29.65677261352539	900.772705078125	-854.60595703125	94.88178253173828	925.9528198242188	-838.8890991210938	-129.6503753662109	1551.1318359375	-284.8384399414062	-151.1565704345703	1477.283325195312	-223.7021636962891	-197.4023590087891	1187.367797851562	-215.6339721679688	-200.052978515625	1190.441162109375	-312.1632385253906	-91.84568023681641	926.9628295898438	-231.4309692382812	-168.7073364257812	920.6045532226562	-204.1666564941406	-185.1051330566406	1111.903930664062	-202.0721130371094	-95.96966552734375	732.699951171875	-258.8974609375	-79.11818695068359	815.131591796875	-228.9232635498047	-147.0064849853516	816.2402954101562	-202.6473388671875	-128.6743011474609	1745.960327148438	-371.00439453125	50.8436164855957	1802.499389648438	-489.3891296386719	42.40027236938477	1785.302124023438	-359.5766906738281	-129.9408416748047	1767.5908203125	-506.5606079101562	-152.6809692382812	1026.488159179688	-645.9674682617188	-63.77980804443359	988.4024658203125	-295.7723388671875	7.015357494354248	1064.39306640625	-355.3522338867188	-32.46588516235352	1080.748046875	-618.556396484375	-189.6895599365234	524.3057861328125	-631.8491821289062	-194.5149383544922	674.2750854492188	-648.9767456054688	-386.4793395996094	42.6326789855957	-593.2266235351562	-334.7118835449219	295.7307739257812	-631.0587158203125	-147.4444732666016	33.06890487670898	-590.865966796875	-220.4867095947266	41.01947402954102	-539.4781494140625	-273.2928466796875	32.5819091796875	-648.1405029296875	-440.8851013183594	51.92339706420898	-518.810546875	109.6758880615234	543.5706787109375	-395.015869140625	12.51749134063721	796.3443603515625	-318.6577453613281	140.1933898925781	33.52028656005859	-502.0744323730469	116.2508087158203	406.3692932128906	-407.3343811035156	353.5831298828125	112.8538818359375	-497.8726501464844	316.4083557128906	84.11070251464844	-551.7442626953125	257.0945739746094	66.44509124755859	-450.6796264648438	95.2781982421875	29.67365264892578	-560.5860595703125	
379	3.78	-197.5561828613281	1090.681518554688	-387.6529846191406	-210.633056640625	1107.953857421875	-520.710205078125	-210.8836975097656	1136.9697265625	-456.3724060058594	17.15365600585938	1325.832153320312	-472.5168762207031	-237.7364044189453	1292.85546875	-452.3468933105469	-183.421630859375	1581.557983398438	-463.9810791015625	-9.367695808410645	1462.844604492188	-467.7694702148438	-243.9107360839844	1396.691528320312	-381.4644165039062	-196.9889678955078	1566.471923828125	-565.8096923828125	-114.3943634033203	1553.503540039062	-635.3574829101562	-131.2258911132812	1434.607299804688	-721.5838623046875	-85.38149261474609	1231.560180664062	-790.9217529296875	-142.50537109375	1195.090209960938	-737.6544189453125	73.84126281738281	1004.433227539062	-806.5233154296875	-1.725576519966125	963.6494750976562	-835.6647338867188	-44.88378524780273	1125.797241210938	-820.3466796875	133.2346038818359	821.892333984375	-823.5875244140625	44.50475311279297	900.3068237304688	-853.4376831054688	109.3584518432617	926.3556518554688	-837.6071166992188	-121.9504089355469	1549.421508789062	-285.8802490234375	-143.8018493652344	1475.468872070312	-224.9557037353516	-190.6501922607422	1185.625610351562	-217.9833984375	-192.5191345214844	1188.921997070312	-314.5408935546875	-85.66130065917969	924.9810180664062	-233.6811370849609	-162.6834564208984	918.7933959960938	-206.8883514404297	-178.5736236572266	1110.122802734375	-204.5095062255859	-90.24770355224609	730.800048828125	-261.7796325683594	-73.31391143798828	813.0761108398438	-231.478271484375	-141.3276672363281	814.3475952148438	-205.5683135986328	-120.7530059814453	1744.606201171875	-372.3618469238281	59.80956268310547	1800.725341796875	-488.7248840332031	50.17881393432617	1783.590942382812	-359.0432739257812	-120.6246948242188	1766.155029296875	-507.7689208984375	-143.3932189941406	1025.23681640625	-647.529541015625	-55.33235549926758	986.4375610351562	-297.3995666503906	15.82387542724609	1062.584350585938	-356.4496154785156	-23.20605087280273	1079.339477539062	-619.7371215820312	-184.2232513427734	523.5181274414062	-632.8593139648438	-187.6309967041016	673.514404296875	-650.152099609375	-386.2671508789062	43.73381423950195	-593.3304443359375	-331.8688049316406	296.4170227050781	-631.6590576171875	-147.3250885009766	32.85506057739258	-590.9249877929688	-220.3545379638672	41.13047790527344	-539.6141967773438	-273.2067260742188	32.56269836425781	-648.149169921875	-440.6348876953125	53.83504486083984	-518.887451171875	112.9588623046875	539.9109497070312	-394.90185546875	18.34270286560059	793.068603515625	-319.286865234375	166.1494903564453	32.94372940063477	-504.4331970214844	123.941032409668	403.9075927734375	-407.666748046875	376.2084045410156	120.6389389038086	-494.439208984375	341.4965209960938	90.61876678466797	-549.1337890625	280.37109375	69.74030303955078	-449.9898986816406	122.8248519897461	27.70735359191895	-564.2324829101562	
